<?xml version="1.0" encoding="utf-8"?>
<!-- Generator: Adobe Illustrator 18.0.0, SVG Export Plug-In . SVG Version: 6.00 Build 0)  -->
<!DOCTYPE svg PUBLIC "-//W3C//DTD SVG 1.1//EN" "http://www.w3.org/Graphics/SVG/1.1/DTD/svg11.dtd">
<svg version="1.1" id="Layer_1" xmlns="http://www.w3.org/2000/svg" xmlns:xlink="http://www.w3.org/1999/xlink" x="0px" y="0px"
	 viewBox="0 0 1417 1329" enable-background="new 0 0 1417 1329" xml:space="preserve">
<g>
	<defs>
		<rect id="SVGID_1_" y="-0.7" width="1417.2" height="1329.7"/>
	</defs>
	<clipPath id="SVGID_2_">
		<use xlink:href="#SVGID_1_"  overflow="visible"/>
	</clipPath>
	
		<rect y="-0.7" opacity="0" clip-path="url(#SVGID_2_)" fill-rule="evenodd" clip-rule="evenodd" fill="#FFFFFF" width="1417.2" height="1329.7"/>
	<path clip-path="url(#SVGID_2_)" fill-rule="evenodd" clip-rule="evenodd" fill="#CBCACA" d="M969.4,935.5c1.9,0.9,1.9,0.9,1.9,0.9
		s31.1,16,35.8,27.4c4.7,11.3,11.3,28.3,16,33c5.7,3.8,18.8,9.4,31.1,12.3c12.2,3.8,27.3,2.8,35.8,5.7c7.5,2.8,22.6,16,25.4,17.9
		c2.8,1.9,28.3,12.3,33.9,14.2c6.6,1.9,8.5,5.7,14.1,6.6c5.7,0,15.1,0.9,19.8,5.7c4.7,4.7,14.1,18.9,22.6,24.5
		c8.5,5.7,24.5,9.4,24.5,9.4c0.9,0,0.9,0,0.9,0c4.7-3.8,4.7-3.8,4.7-3.8c6.6-0.9,6.6-0.9,6.6-0.9c2.8-7.5,2.8-7.5,2.8-7.5
		c0.9-19.8,0.9-19.8,0.9-19.8c12.3-32.1,12.3-32.1,12.3-32.1c0-3.8,0-3.8,0-3.8c19.8-28.3,19.8-28.3,19.8-28.3
		c5.7-3.8,5.7-3.8,5.7-3.8c0-10.4,0-10.4,0-10.4c21.7-30.2,21.7-30.2,21.7-30.2c1.9-14.2,1.9-14.2,1.9-14.2c16-22.6,16-22.6,16-22.6
		c16-5.7,16-5.7,16-5.7c16-13.2,16-13.2,16-13.2c-1.9-9.4-1.9-9.4-1.9-9.4c17.9-20.8,17.9-20.8,17.9-20.8
		c9.4-22.6,9.4-22.6,9.4-22.6c-0.9-13.2-0.9-13.2-0.9-13.2c18.8-46.2,18.8-46.2,18.8-46.2c5.7-16,5.7-16,5.7-16
		c7.5-12.3,7.5-12.3,7.5-12.3c-0.9-26.4-0.9-26.4-0.9-26.4c-6.6,1.9-26.4,6.6-40.5,16c-10.4,6.6-19.8,18.9-31.1,18.9
		c-16,0-21.7-16-31.1-16c-10.4,0-10.4,0-18.8,1.9c-7.5,1.9-27.3,13.2-27.3,13.2c-293.1,0-293.1,0-293.1,0V935.5z"/>
	<path clip-path="url(#SVGID_2_)" fill="none" stroke="#FFFFFF" stroke-miterlimit="8" d="M969.4,935.5c1.9,0.9,1.9,0.9,1.9,0.9
		s31.1,16,35.8,27.4s11.3,28.3,16,33c5.7,3.8,18.8,9.4,31.1,12.3c12.3,3.8,27.3,2.8,35.8,5.7c7.5,2.8,22.6,16,25.4,17.9
		c2.8,1.9,28.3,12.3,33.9,14.2c6.6,1.9,8.5,5.7,14.1,6.6c5.7,0,15.1,0.9,19.8,5.7c4.7,4.7,14.1,18.9,22.6,24.5
		c8.5,5.7,24.5,9.4,24.5,9.4c0.9,0,0.9,0,0.9,0c4.7-3.8,4.7-3.8,4.7-3.8c6.6-0.9,6.6-0.9,6.6-0.9c2.8-7.5,2.8-7.5,2.8-7.5
		c0.9-19.8,0.9-19.8,0.9-19.8c12.3-32.1,12.3-32.1,12.3-32.1c0-3.8,0-3.8,0-3.8c19.8-28.3,19.8-28.3,19.8-28.3
		c5.7-3.8,5.7-3.8,5.7-3.8c0-10.4,0-10.4,0-10.4c21.7-30.2,21.7-30.2,21.7-30.2c1.9-14.2,1.9-14.2,1.9-14.2c16-22.6,16-22.6,16-22.6
		c16-5.7,16-5.7,16-5.7c16-13.2,16-13.2,16-13.2c-1.9-9.4-1.9-9.4-1.9-9.4c17.9-20.8,17.9-20.8,17.9-20.8
		c9.4-22.6,9.4-22.6,9.4-22.6c-0.9-13.2-0.9-13.2-0.9-13.2c18.8-46.2,18.8-46.2,18.8-46.2c5.7-16,5.7-16,5.7-16
		c7.5-12.3,7.5-12.3,7.5-12.3c-0.9-26.4-0.9-26.4-0.9-26.4c-6.6,1.9-26.4,6.6-40.5,16c-10.4,6.6-19.8,18.9-31.1,18.9
		c-16,0-21.7-16-31.1-16c-10.4,0-10.4,0-18.8,1.9c-7.5,1.9-27.3,13.2-27.3,13.2c-293.1,0-293.1,0-293.1,0V935.5z"/>
	<polygon clip-path="url(#SVGID_2_)" fill-rule="evenodd" clip-rule="evenodd" fill="#CBCACA" points="542.8,845.8 576.7,829.8 
		624.4,824.3 642.4,824.3 644.4,817.5 682.2,841.4 688.6,839.4 698.1,836.6 714.1,847 724.4,849 733.2,845.8 736.8,855.3 
		747.1,860.9 747.9,874.4 752.7,883.6 765.8,885.6 767.8,902.7 780.2,913.9 782.2,925 785.8,934.6 785.8,945.7 796.1,956.1 
		806.5,957.3 808.5,947.7 803.7,945.7 806.5,937.4 811.2,937.4 821.6,921.4 838.3,908.3 848.7,905.5 854.7,889.2 865,878.8 
		867.8,870.5 865.8,863.7 869.8,863.7 872.6,878 874.2,881.6 868.6,891.2 873.4,899.5 858.2,915.9 856.3,925 855.5,939.4 
		853.5,953.3 838.3,953.3 836.7,960.1 832.8,969.6 851.9,964.9 863,965.6 875.4,927.8 882.9,944.9 886.5,948.9 886.5,968.4 
		873.4,984.8 910,975.2 907.2,986.4 914,995.1 925.2,1014.6 926,1029.8 921.6,1044.1 929.1,1059.2 939.5,1067.6 943.9,1081.6 
		961.8,1085.5 969.4,1093.1 969.4,628.3 542.8,628.3 	"/>
	<polygon clip-path="url(#SVGID_2_)" fill="none" stroke="#FFFFFF" stroke-miterlimit="8" points="542.8,845.8 576.7,829.8 
		624.4,824.3 642.4,824.3 644.4,817.5 682.2,841.4 688.6,839.4 698.1,836.6 714.1,847 724.4,849 733.2,845.8 736.8,855.3 
		747.1,860.9 747.9,874.4 752.7,883.6 765.8,885.6 767.8,902.7 780.2,913.9 782.2,925 785.8,934.6 785.8,945.7 796.1,956.1 
		806.5,957.3 808.5,947.7 803.7,945.7 806.5,937.4 811.2,937.4 821.6,921.4 838.3,908.3 848.7,905.5 854.7,889.2 865,878.8 
		867.8,870.5 865.8,863.7 869.8,863.7 872.6,878 874.2,881.6 868.6,891.2 873.4,899.5 858.2,915.9 856.3,925 855.5,939.4 
		853.5,953.3 838.3,953.3 836.7,960.1 832.8,969.6 851.9,964.9 863,965.7 875.4,927.8 882.9,944.9 886.5,948.9 886.5,968.4 
		873.4,984.8 910,975.2 907.2,986.4 914,995.1 925.2,1014.6 926,1029.8 921.6,1044.1 929.1,1059.2 939.5,1067.6 943.9,1081.6 
		961.8,1085.5 969.4,1093.1 969.4,628.3 542.8,628.3 	"/>
	<path clip-path="url(#SVGID_2_)" fill-rule="evenodd" clip-rule="evenodd" fill="#CBCACA" d="M938.3,255.8
		c-1.9-6.6-5.7-17.9-34.8-21.7c-21.7-21.7-21.7-21.7-21.7-21.7c-12.2-5.7-12.2-5.7-12.2-5.7c-12.2-8.5-12.2-8.5-12.2-8.5
		c-9.4,0-9.4,0-9.4,0c-20.7-20.7-20.7-20.7-20.7-20.7c-25.4-14.1-25.4-14.1-25.4-14.1C797,152,797,152,797,152
		c4.7-5.7,4.7-5.7,4.7-5.7c10.4-13.2,10.4-13.2,10.4-13.2c10.4-22.6,10.4-22.6,10.4-22.6c-6.6-4.7-6.6-4.7-6.6-4.7
		c3.8-12.3,3.8-12.3,3.8-12.3c14.1-7.5,14.1-7.5,14.1-7.5c1.9,7.5,1.9,7.5,1.9,7.5C847,81.3,847,81.3,847,81.3
		c-5.7-7.5-5.7-7.5-5.7-7.5c4.7-1.9,4.7-1.9,4.7-1.9c4.7-8.5,4.7-8.5,4.7-8.5c11.3-6.6,11.3-6.6,11.3-6.6
		c-12.2-7.5-12.2-7.5-12.2-7.5c-3.8,1.9-3.8,1.9-3.8,1.9c-4.7-11.3-4.7-11.3-4.7-11.3C831,46.4,831,46.4,831,46.4
		c3.8,7.5,3.8,7.5,3.8,7.5c-3.8,4.7-3.8,4.7-3.8,4.7c-6.6,1.9-6.6,1.9-6.6,1.9c-3.8-14.1-3.8-14.1-3.8-14.1
		c-7.5,6.6-7.5,6.6-7.5,6.6c-2.8-7.5-2.8-7.5-2.8-7.5c-8.5,2.8-8.5,2.8-8.5,2.8c-11.3,1.9-11.3,1.9-11.3,1.9
		c-5.7,0.9-5.7,0.9-5.7,0.9c-1.9-3.8-1.9-3.8-1.9-3.8c-10.4-6.6-10.4-6.6-10.4-6.6c-6.6,2.8-6.6,2.8-6.6,2.8
		c-11.3-0.9-11.3-0.9-11.3-0.9C744.3,36,744.3,36,744.3,36c-7.5-3.8-7.5-3.8-7.5-3.8c-8.5,0-8.5,0-8.5,0
		c-16.9-2.8-16.9-2.8-16.9-2.8c-11.3-13.2-11.3-13.2-11.3-13.2c-6.6,2.8-6.6,2.8-6.6,2.8c-10.4-6.6-10.4-6.6-10.4-6.6
		c-9.4-1.9-9.4-1.9-9.4-1.9c-7.5,0-7.5,0-7.5,0c-8.5,0-8.5,0-8.5,0c6.6,7.5,6.6,7.5,6.6,7.5c7.5,3.8,7.5,3.8,7.5,3.8
		c10.4-1.9,10.4-1.9,10.4-1.9c5.7,4.7,5.7,4.7,5.7,4.7c1.9,2.8,1.9,2.8,1.9,2.8c0,17.9,0,17.9,0,17.9c-8.5,4.7-8.5,4.7-8.5,4.7
		c-5.6,0-5.6,0-5.6,0c-10.4,3.8-10.4,3.8-10.4,3.8c-10.4,0-10.4,0-10.4,0c-12.2,0-12.2,0-12.2,0c-7.5-7.5-7.5-7.5-7.5-7.5
		c-3.8,3.8-3.8,3.8-3.8,3.8c-5.7,0.9-5.7,0.9-5.7,0.9c0,8.5,0,8.5,0,8.5c-6.6,0-6.6,0-6.6,0c1.9,8.5,1.9,8.5,1.9,8.5
		c-8.5-6.6-8.5-6.6-8.5-6.6c-5.6,6.6-5.6,6.6-5.6,6.6c3.8,3.8,3.8,3.8,3.8,3.8c-3.8,0.9-3.8,0.9-3.8,0.9c-5.7-2.8-5.7-2.8-5.7-2.8
		c-2.8,6.6-2.8,6.6-2.8,6.6c-4.7,4.7-4.7,4.7-4.7,4.7c0,10.4,0,10.4,0,10.4c4.7,6.6,4.7,6.6,4.7,6.6c-18.8,6.6-18.8,6.6-18.8,6.6
		c-0.9,15.1-0.9,15.1-0.9,15.1c-10.4,13.2-10.4,13.2-10.4,13.2c-2.8,9.4-2.8,9.4-2.8,9.4c11.3,6.6,11.3,6.6,11.3,6.6
		c-1.9,7.5-1.9,7.5-1.9,7.5c4.7,0,4.7,0,4.7,0c-3.8,5.7-3.8,5.7-3.8,5.7c1.9,8.5,1.9,8.5,1.9,8.5c-5.6-3.8-5.6-3.8-5.6-3.8
		c-8.5-7.5-8.5-7.5-8.5-7.5c-3.8,4.7-3.8,4.7-3.8,4.7c0.9,8.5,0.9,8.5,0.9,8.5c-4.7,0-4.7,0-4.7,0c-1.9-9.4-1.9-9.4-1.9-9.4
		c-11.3-2.8-11.3-2.8-11.3-2.8c0,467.8,0,467.8,0,467.8c395.5,0,395.5,0,395.5,0V255.8z"/>
	<path clip-path="url(#SVGID_2_)" fill="none" stroke="#FFFFFF" stroke-miterlimit="8" d="M938.3,255.8c-1.9-6.6-5.6-17.9-34.8-21.7
		c-21.7-21.7-21.7-21.7-21.7-21.7c-12.2-5.7-12.2-5.7-12.2-5.7c-12.2-8.5-12.2-8.5-12.2-8.5c-9.4,0-9.4,0-9.4,0
		c-20.7-20.7-20.7-20.7-20.7-20.7c-25.4-14.1-25.4-14.1-25.4-14.1C797,152,797,152,797,152c4.7-5.7,4.7-5.7,4.7-5.7
		c10.4-13.2,10.4-13.2,10.4-13.2c10.4-22.6,10.4-22.6,10.4-22.6c-6.6-4.7-6.6-4.7-6.6-4.7c3.8-12.3,3.8-12.3,3.8-12.3
		c14.1-7.5,14.1-7.5,14.1-7.5c1.9,7.5,1.9,7.5,1.9,7.5C847,81.3,847,81.3,847,81.3c-5.6-7.5-5.6-7.5-5.6-7.5
		c4.7-1.9,4.7-1.9,4.7-1.9c4.7-8.5,4.7-8.5,4.7-8.5c11.3-6.6,11.3-6.6,11.3-6.6c-12.2-7.5-12.2-7.5-12.2-7.5
		c-3.8,1.9-3.8,1.9-3.8,1.9c-4.7-11.3-4.7-11.3-4.7-11.3C831,46.4,831,46.4,831,46.4c3.8,7.5,3.8,7.5,3.8,7.5
		c-3.8,4.7-3.8,4.7-3.8,4.7c-6.6,1.9-6.6,1.9-6.6,1.9c-3.8-14.1-3.8-14.1-3.8-14.1c-7.5,6.6-7.5,6.6-7.5,6.6
		c-2.8-7.5-2.8-7.5-2.8-7.5c-8.5,2.8-8.5,2.8-8.5,2.8c-11.3,1.9-11.3,1.9-11.3,1.9c-5.7,0.9-5.7,0.9-5.7,0.9
		c-1.9-3.8-1.9-3.8-1.9-3.8c-10.4-6.6-10.4-6.6-10.4-6.6c-6.6,2.8-6.6,2.8-6.6,2.8c-11.3-0.9-11.3-0.9-11.3-0.9
		C744.3,36,744.3,36,744.3,36c-7.5-3.8-7.5-3.8-7.5-3.8c-8.5,0-8.5,0-8.5,0c-17-2.8-17-2.8-17-2.8c-11.3-13.2-11.3-13.2-11.3-13.2
		c-6.6,2.8-6.6,2.8-6.6,2.8c-10.4-6.6-10.4-6.6-10.4-6.6c-9.4-1.9-9.4-1.9-9.4-1.9c-7.5,0-7.5,0-7.5,0c-8.5,0-8.5,0-8.5,0
		c6.6,7.5,6.6,7.5,6.6,7.5c7.5,3.8,7.5,3.8,7.5,3.8c10.4-1.9,10.4-1.9,10.4-1.9c5.6,4.7,5.6,4.7,5.6,4.7c1.9,2.8,1.9,2.8,1.9,2.8
		c0,17.9,0,17.9,0,17.9c-8.5,4.7-8.5,4.7-8.5,4.7c-5.7,0-5.7,0-5.7,0c-10.4,3.8-10.4,3.8-10.4,3.8c-10.4,0-10.4,0-10.4,0
		c-12.2,0-12.2,0-12.2,0c-7.5-7.5-7.5-7.5-7.5-7.5c-3.8,3.8-3.8,3.8-3.8,3.8c-5.6,0.9-5.6,0.9-5.6,0.9c0,8.5,0,8.5,0,8.5
		c-6.6,0-6.6,0-6.6,0c1.9,8.5,1.9,8.5,1.9,8.5c-8.5-6.6-8.5-6.6-8.5-6.6c-5.6,6.6-5.6,6.6-5.6,6.6c3.8,3.8,3.8,3.8,3.8,3.8
		c-3.8,0.9-3.8,0.9-3.8,0.9c-5.7-2.8-5.7-2.8-5.7-2.8c-2.8,6.6-2.8,6.6-2.8,6.6c-4.7,4.7-4.7,4.7-4.7,4.7c0,10.4,0,10.4,0,10.4
		c4.7,6.6,4.7,6.6,4.7,6.6c-18.8,6.6-18.8,6.6-18.8,6.6c-0.9,15.1-0.9,15.1-0.9,15.1c-10.4,13.2-10.4,13.2-10.4,13.2
		c-2.8,9.4-2.8,9.4-2.8,9.4c11.3,6.6,11.3,6.6,11.3,6.6c-1.9,7.5-1.9,7.5-1.9,7.5c4.7,0,4.7,0,4.7,0c-3.8,5.7-3.8,5.7-3.8,5.7
		c1.9,8.5,1.9,8.5,1.9,8.5c-5.6-3.8-5.6-3.8-5.6-3.8c-8.5-7.5-8.5-7.5-8.5-7.5c-3.8,4.7-3.8,4.7-3.8,4.7c0.9,8.5,0.9,8.5,0.9,8.5
		c-4.7,0-4.7,0-4.7,0c-1.9-9.4-1.9-9.4-1.9-9.4c-11.3-2.8-11.3-2.8-11.3-2.8c0,467.8,0,467.8,0,467.8c395.5,0,395.5,0,395.5,0V255.8
		z"/>
	<path clip-path="url(#SVGID_2_)" fill-rule="evenodd" clip-rule="evenodd" fill="#CBCACA" d="M1068.4,1198.6
		c3.8,3.8,3.8,3.8,3.8,3.8c1.9-2.8,1.9-2.8,1.9-2.8c3.8,1.9,3.8,1.9,3.8,1.9c-0.9,1.9-0.9,1.9-0.9,1.9c3.8,1.9,3.8,1.9,3.8,1.9
		c1.9-1.9,1.9-1.9,1.9-1.9c2.8,2.8,2.8,2.8,2.8,2.8c6.6,4.7,6.6,4.7,6.6,4.7s16,10.4,19.8,12.3c3.8,0.9,12.2,0,12.2,0
		c2.8-1.9,2.8-1.9,2.8-1.9c2.8,0,2.8,0,2.8,0c7.5-1.9,7.5-1.9,7.5-1.9c3.8,0.9,3.8,0.9,3.8,0.9c5.6-0.9,5.6-0.9,5.6-0.9
		c5.6,0,5.6,0,5.6,0c3.8-3.8,3.8-3.8,3.8-3.8c6.6,0.9,6.6,0.9,6.6,0.9c4.7-3.8,4.7-3.8,4.7-3.8c8.5,10.4,8.5,10.4,8.5,10.4
		c-1.9,3.8-1.9,3.8-1.9,3.8c0.9,7.6,0.9,7.6,0.9,7.6c-1.9,5.7-1.9,5.7-1.9,5.7c-1.9,10.4-1.9,10.4-1.9,10.4c0,13.2,0,13.2,0,13.2
		c0.9,5.7,0.9,5.7,0.9,5.7c-2.8,6.6-2.8,6.6-2.8,6.6c-0.9-0.9-0.9-0.9-0.9-0.9c0-5.7,0-5.7,0-5.7c-0.9-3.8-0.9-3.8-0.9-3.8
		c-2.8,3.8-2.8,3.8-2.8,3.8c-3.8,4.7-3.8,4.7-3.8,4.7c-0.9,9.4-0.9,9.4-0.9,9.4c-3.8,2.8-3.8,2.8-3.8,2.8c0.9,4.7,0.9,4.7,0.9,4.7
		c-1.9,3.8-1.9,3.8-1.9,3.8c-1.9,3.8-1.9,3.8-1.9,3.8c2.8,0.9,2.8,0.9,2.8,0.9c0,3.8,0,3.8,0,3.8c-1.9,3.8-1.9,3.8-1.9,3.8
		c-2.8,5.7-2.8,5.7-2.8,5.7c-3.8-0.9-3.8-0.9-3.8-0.9c0-5.7,0-5.7,0-5.7c1.9-4.7,1.9-4.7,1.9-4.7c-3.8-3.8-3.8-3.8-3.8-3.8
		c-0.9,0.9-0.9,0.9-0.9,0.9c-1.9,4.7-1.9,4.7-1.9,4.7c-1.9,1.9-1.9,1.9-1.9,1.9c-1.9-2.8-1.9-2.8-1.9-2.8c0-5.7,0-5.7,0-5.7
		c-2.8,6.6-2.8,6.6-2.8,6.6c1.9,2.8,1.9,2.8,1.9,2.8c0,4.7,0,4.7,0,4.7c-2.8,3.8-2.8,3.8-2.8,3.8c0.9,3.8,0.9,3.8,0.9,3.8
		c-0.9,2.8-0.9,2.8-0.9,2.8c-1.9,1.9-1.9,1.9-1.9,1.9c-1.9,0-1.9,0-1.9,0c-1.9-2.8-1.9-2.8-1.9-2.8c1.9-4.7,1.9-4.7,1.9-4.7
		c2.8-3.8,2.8-3.8,2.8-3.8c-1.9-3.8-1.9-3.8-1.9-3.8c-3.8,3.8-3.8,3.8-3.8,3.8c-2.8-0.9-2.8-0.9-2.8-0.9c-0.9,6.6-0.9,6.6-0.9,6.6
		c-1.9,3.8-1.9,3.8-1.9,3.8c-2.8,4.7-2.8,4.7-2.8,4.7c-4.7,0-4.7,0-4.7,0c-2.8-4.7-2.8-4.7-2.8-4.7c-3.8,1.9-3.8,1.9-3.8,1.9
		s-2.8,0-4.7,0c-0.9,0-5.6-1.9-5.6-1.9c-2.8,1.9-2.8,1.9-2.8,1.9c-0.9-6.6-0.9-6.6-0.9-6.6c0.9-1.9,0.9-1.9,0.9-1.9
		c0-3.8,0-3.8,0-3.8c-2.8-1.9-2.8-1.9-2.8-1.9c-2.8,1.9-2.8,1.9-2.8,1.9c-2.8-10.4-2.8-10.4-2.8-10.4c-1.9-3.8-1.9-3.8-1.9-3.8
		c-4.7-0.9-4.7-0.9-4.7-0.9c-0.9-11.3-0.9-11.3-0.9-11.3c-2.8-3.8-2.8-3.8-2.8-3.8c-0.9-12.3-0.9-12.3-0.9-12.3c0-4.7,0-4.7,0-4.7
		c4.7,5.7,4.7,5.7,4.7,5.7c2.8,0,2.8,0,2.8,0c-1.9-6.6-1.9-6.6-1.9-6.6c-4.7-2.8-4.7-2.8-4.7-2.8c0-6.6,0-6.6,0-6.6
		c-8.5-9.4-8.5-9.4-8.5-9.4c0-8.5,0-8.5,0-8.5c-3.8-9.4-3.8-9.4-3.8-9.4c-1.9-8.5-1.9-8.5-1.9-8.5c-0.9-7.6-0.9-7.6-0.9-7.6
		c3.8-2.8,3.8-2.8,3.8-2.8L1068.4,1198.6z"/>
	<path clip-path="url(#SVGID_2_)" fill="none" stroke="#FFFFFF" stroke-miterlimit="8" d="M1068.4,1198.6c3.8,3.8,3.8,3.8,3.8,3.8
		c1.9-2.8,1.9-2.8,1.9-2.8c3.8,1.9,3.8,1.9,3.8,1.9c-0.9,1.9-0.9,1.9-0.9,1.9c3.8,1.9,3.8,1.9,3.8,1.9c1.9-1.9,1.9-1.9,1.9-1.9
		c2.8,2.8,2.8,2.8,2.8,2.8c6.6,4.7,6.6,4.7,6.6,4.7s16,10.4,19.8,12.3c3.8,0.9,12.2,0,12.2,0c2.8-1.9,2.8-1.9,2.8-1.9
		c2.8,0,2.8,0,2.8,0c7.5-1.9,7.5-1.9,7.5-1.9c3.8,0.9,3.8,0.9,3.8,0.9c5.6-0.9,5.6-0.9,5.6-0.9c5.6,0,5.6,0,5.6,0
		c3.8-3.8,3.8-3.8,3.8-3.8c6.6,0.9,6.6,0.9,6.6,0.9c4.7-3.8,4.7-3.8,4.7-3.8c8.5,10.4,8.5,10.4,8.5,10.4c-1.9,3.8-1.9,3.8-1.9,3.8
		c0.9,7.6,0.9,7.6,0.9,7.6c-1.9,5.7-1.9,5.7-1.9,5.7c-1.9,10.4-1.9,10.4-1.9,10.4c0,13.2,0,13.2,0,13.2c0.9,5.7,0.9,5.7,0.9,5.7
		c-2.8,6.6-2.8,6.6-2.8,6.6c-0.9-0.9-0.9-0.9-0.9-0.9c0-5.7,0-5.7,0-5.7c-0.9-3.8-0.9-3.8-0.9-3.8c-2.8,3.8-2.8,3.8-2.8,3.8
		c-3.8,4.7-3.8,4.7-3.8,4.7c-0.9,9.4-0.9,9.4-0.9,9.4c-3.8,2.8-3.8,2.8-3.8,2.8c0.9,4.7,0.9,4.7,0.9,4.7c-1.9,3.8-1.9,3.8-1.9,3.8
		c-1.9,3.8-1.9,3.8-1.9,3.8c2.8,0.9,2.8,0.9,2.8,0.9c0,3.8,0,3.8,0,3.8c-1.9,3.8-1.9,3.8-1.9,3.8c-2.8,5.7-2.8,5.7-2.8,5.7
		c-3.8-0.9-3.8-0.9-3.8-0.9c0-5.7,0-5.7,0-5.7c1.9-4.7,1.9-4.7,1.9-4.7c-3.8-3.8-3.8-3.8-3.8-3.8c-0.9,0.9-0.9,0.9-0.9,0.9
		c-1.9,4.7-1.9,4.7-1.9,4.7c-1.9,1.9-1.9,1.9-1.9,1.9c-1.9-2.8-1.9-2.8-1.9-2.8c0-5.7,0-5.7,0-5.7c-2.8,6.6-2.8,6.6-2.8,6.6
		c1.9,2.8,1.9,2.8,1.9,2.8c0,4.7,0,4.7,0,4.7c-2.8,3.8-2.8,3.8-2.8,3.8c0.9,3.8,0.9,3.8,0.9,3.8c-0.9,2.8-0.9,2.8-0.9,2.8
		c-1.9,1.9-1.9,1.9-1.9,1.9c-1.9,0-1.9,0-1.9,0c-1.9-2.8-1.9-2.8-1.9-2.8c1.9-4.7,1.9-4.7,1.9-4.7c2.8-3.8,2.8-3.8,2.8-3.8
		c-1.9-3.8-1.9-3.8-1.9-3.8c-3.8,3.8-3.8,3.8-3.8,3.8c-2.8-0.9-2.8-0.9-2.8-0.9c-0.9,6.6-0.9,6.6-0.9,6.6c-1.9,3.8-1.9,3.8-1.9,3.8
		c-2.8,4.7-2.8,4.7-2.8,4.7c-4.7,0-4.7,0-4.7,0c-2.8-4.7-2.8-4.7-2.8-4.7c-3.8,1.9-3.8,1.9-3.8,1.9s-2.8,0-4.7,0
		c-0.9,0-5.6-1.9-5.6-1.9c-2.8,1.9-2.8,1.9-2.8,1.9c-0.9-6.6-0.9-6.6-0.9-6.6c0.9-1.9,0.9-1.9,0.9-1.9c0-3.8,0-3.8,0-3.8
		c-2.8-1.9-2.8-1.9-2.8-1.9c-2.8,1.9-2.8,1.9-2.8,1.9c-2.8-10.4-2.8-10.4-2.8-10.4c-1.9-3.8-1.9-3.8-1.9-3.8
		c-4.7-0.9-4.7-0.9-4.7-0.9c-0.9-11.3-0.9-11.3-0.9-11.3c-2.8-3.8-2.8-3.8-2.8-3.8c-0.9-12.3-0.9-12.3-0.9-12.3c0-4.7,0-4.7,0-4.7
		c4.7,5.7,4.7,5.7,4.7,5.7c2.8,0,2.8,0,2.8,0c-1.9-6.6-1.9-6.6-1.9-6.6c-4.7-2.8-4.7-2.8-4.7-2.8c0-6.6,0-6.6,0-6.6
		c-8.5-9.4-8.5-9.4-8.5-9.4c0-8.5,0-8.5,0-8.5c-3.8-9.4-3.8-9.4-3.8-9.4c-1.9-8.5-1.9-8.5-1.9-8.5c-0.9-7.6-0.9-7.6-0.9-7.6
		c3.8-2.8,3.8-2.8,3.8-2.8L1068.4,1198.6z"/>
	<path clip-path="url(#SVGID_2_)" fill-rule="evenodd" clip-rule="evenodd" fill="#CBCACA" d="M1231.4,1093
		c-6.6,3.8-6.6,3.8-6.6,3.8c-40.5-0.9-40.5-0.9-40.5-0.9c-15.1,3.8-15.1,3.8-15.1,3.8c-26.4,22.7-26.4,22.7-26.4,22.7
		c-7.5,0.9-7.5,0.9-7.5,0.9c-13.2,0-13.2,0-13.2,0c1.9,5.7,1.9,5.7,1.9,5.7c4.7,0.9,4.7,0.9,4.7,0.9c-4.7,9.4-4.7,9.4-4.7,9.4
		c-6.6-10.4-6.6-10.4-6.6-10.4c-4.7,2.8-4.7,2.8-4.7,2.8c-4.7-9.4-4.7-9.4-4.7-9.4c-5.7-3.8-5.7-3.8-5.7-3.8
		c-6.6-5.7-6.6-5.7-6.6-5.7c3.8-6.6,3.8-6.6,3.8-6.6c-5.7-4.7-5.7-4.7-5.7-4.7c-5.7,7.6-5.7,7.6-5.7,7.6c-5.7,1.9-5.7,1.9-5.7,1.9
		c-6.6-3.8-6.6-3.8-6.6-3.8c7.5-2.8,7.5-2.8,7.5-2.8c4.7-9.4,4.7-9.4,4.7-9.4c-2.8-11.3-2.8-11.3-2.8-11.3
		c-18.9,11.3-18.9,11.3-18.9,11.3c7.5,0,7.5,0,7.5,0c0.9,5.7,0.9,5.7,0.9,5.7c-16,6.6-16,6.6-16,6.6c-19.8,16-19.8,16-19.8,16
		c-33-21.7-33-21.7-33-21.7c-8.5,0-8.5,0-8.5,0c-14.1-4.7-14.1-4.7-14.1-4.7c-7.5,2.8-7.5,2.8-7.5,2.8c-6.6-6.6-6.6-6.6-6.6-6.6
		c0-157.7,0-157.7,0-157.7c1.9,0.9,1.9,0.9,1.9,0.9s31.1,16,35.8,27.4c4.7,11.3,11.3,28.3,16,33c5.7,3.8,18.9,9.4,31.1,12.3
		c12.3,3.8,27.3,2.8,35.8,5.7c7.5,2.8,22.6,16,25.5,17.9c2.8,1.9,28.3,12.3,33.9,14.2c6.6,1.9,8.5,5.7,14.1,6.6
		c5.7,0,15.1,0.9,19.8,5.7c4.7,4.7,14.1,18.9,22.6,24.5s24.5,9.4,24.5,9.4"/>
	<path clip-path="url(#SVGID_2_)" fill="none" stroke="#FFFFFF" stroke-miterlimit="8" d="M1231.4,1093c-6.6,3.8-6.6,3.8-6.6,3.8
		c-40.5-0.9-40.5-0.9-40.5-0.9c-15.1,3.8-15.1,3.8-15.1,3.8c-26.4,22.7-26.4,22.7-26.4,22.7c-7.5,0.9-7.5,0.9-7.5,0.9
		c-13.2,0-13.2,0-13.2,0c1.9,5.7,1.9,5.7,1.9,5.7c4.7,0.9,4.7,0.9,4.7,0.9c-4.7,9.4-4.7,9.4-4.7,9.4c-6.6-10.4-6.6-10.4-6.6-10.4
		c-4.7,2.8-4.7,2.8-4.7,2.8c-4.7-9.4-4.7-9.4-4.7-9.4c-5.7-3.8-5.7-3.8-5.7-3.8c-6.6-5.7-6.6-5.7-6.6-5.7c3.8-6.6,3.8-6.6,3.8-6.6
		c-5.7-4.7-5.7-4.7-5.7-4.7c-5.7,7.6-5.7,7.6-5.7,7.6c-5.7,1.9-5.7,1.9-5.7,1.9c-6.6-3.8-6.6-3.8-6.6-3.8c7.5-2.8,7.5-2.8,7.5-2.8
		c4.7-9.4,4.7-9.4,4.7-9.4c-2.8-11.3-2.8-11.3-2.8-11.3c-18.9,11.3-18.9,11.3-18.9,11.3c7.5,0,7.5,0,7.5,0c0.9,5.7,0.9,5.7,0.9,5.7
		c-16,6.6-16,6.6-16,6.6c-19.8,16-19.8,16-19.8,16c-33-21.7-33-21.7-33-21.7c-8.5,0-8.5,0-8.5,0c-14.1-4.7-14.1-4.7-14.1-4.7
		c-7.5,2.8-7.5,2.8-7.5,2.8c-6.6-6.6-6.6-6.6-6.6-6.6c0-157.7,0-157.7,0-157.7c1.9,0.9,1.9,0.9,1.9,0.9s31.1,16,35.8,27.4
		s11.3,28.3,16,33c5.7,3.8,18.9,9.4,31.1,12.3c12.3,3.8,27.3,2.8,35.8,5.7c7.5,2.8,22.6,16,25.5,17.9c2.8,1.9,28.3,12.3,33.9,14.2
		c6.6,1.9,8.5,5.7,14.1,6.6c5.7,0,15.1,0.9,19.8,5.7c4.7,4.7,14.1,18.9,22.6,24.5c8.5,5.7,24.5,9.4,24.5,9.4"/>
	<path clip-path="url(#SVGID_2_)" fill-rule="evenodd" clip-rule="evenodd" fill="#CBCACA" d="M542.8,845.9
		c-10.4,5.7-10.4,5.7-10.4,5.7c-33,7.5-33,7.5-33,7.5c-19.8-1.9-19.8-1.9-19.8-1.9c-18.8,15.1-18.8,15.1-18.8,15.1
		c-24.5,14.1-24.5,14.1-24.5,14.1c-18.8,9.4-18.8,9.4-18.8,9.4c-4.7,20.7-4.7,20.7-4.7,20.7c-22.6,17-22.6,17-22.6,17
		c-5.7-3.8-5.7-3.8-5.7-3.8c-18.8,2.8-18.8,2.8-18.8,2.8c-7.5,3.8-7.5,3.8-7.5,3.8c-4.7-4.7-4.7-4.7-4.7-4.7
		c-4.7-0.9-4.7-0.9-4.7-0.9c-4.7,1.9-4.7,1.9-4.7,1.9c-20.7,0.9-20.7,0.9-20.7,0.9c-29.2,7.5-29.2,7.5-29.2,7.5
		c-12.2,3.8-12.2,3.8-12.2,3.8C270.5,959,270.5,959,270.5,959c-2.8,7.5-2.8,7.5-2.8,7.5c-13.2,0-13.2,0-13.2,0
		c-7.5,9.4-7.5,9.4-7.5,9.4c-9.4,5.7-9.4,5.7-9.4,5.7C229,991,229,991,229,991c-14.1,6.6-14.1,6.6-14.1,6.6
		c-10.4-2.8-10.4-2.8-10.4-2.8c-19.8,4.7-19.8,4.7-19.8,4.7c-14.1-3.8-14.1-3.8-14.1-3.8c-10.4-1.9-10.4-1.9-10.4-1.9
		c-9.4-10.4-9.4-10.4-9.4-10.4c-16-6.6-16-6.6-16-6.6c-5.7,0.9-5.7,0.9-5.7,0.9c-2.8,0-2.8,0-2.8,0c-6.6-29.2-6.6-29.2-6.6-29.2
		c19.8,6.6,10.4-0.9,17.9-7.5c8.5-7.5-0.9-28.3-0.9-28.3c3.8-3.8,3.8-3.8,3.8-3.8c-2.8-4.7-2.8-4.7-2.8-4.7
		c2.8-19.8-12.2-41.5-12.2-41.5c-28.3-41.5-34.9-87.7-34.9-87.7c-9.4-5.7-9.4-5.7-9.4-5.7c-1.9-10.4-1.9-10.4-1.9-10.4
		c-8.5-10.4-8.5-10.4-8.5-10.4c-10.4-11.3-10.4-11.3-10.4-11.3c-3.8-17-3.8-17-3.8-17c-25.4-35.8-25.4-35.8-25.4-35.8
		C17,672.4,17,672.4,17,672.4c-2.8-8.5-2.8-8.5-2.8-8.5C1.9,650.8,1.9,650.8,1.9,650.8c3.8-4.7,3.8-4.7,3.8-4.7
		c14.1,17,14.1,17,14.1,17c17,20.7,17,20.7,17,20.7c3.8-8.5,3.8-8.5,3.8-8.5c-8.5-7.5-8.5-7.5-8.5-7.5c-10.4-17-10.4-17-10.4-17
		c-0.9-7.5-0.9-7.5-0.9-7.5c11.3,8.5,11.3,8.5,11.3,8.5c4.7,10.4,4.7,10.4,4.7,10.4c2.8-5.7,2.8-5.7,2.8-5.7
		c4.7,15.1,4.7,15.1,4.7,15.1c5.7,0,5.7,0,5.7,0c0.9-19.8,0.9-19.8,0.9-19.8c-17-18.9-17-18.9-17-18.9c-9.4-13.2-9.4-13.2-9.4-13.2
		c-4.7-9.4-4.7-9.4-4.7-9.4c-0.9-7.5-0.9-7.5-0.9-7.5c4.7-16,4.7-16,4.7-16c5.7-6.6,5.7-6.6,5.7-6.6c-6.6-3.8-6.6-3.8-6.6-3.8
		C21.7,564,21.7,564,21.7,564c-3.8,9.4-3.8,9.4-3.8,9.4c-2.8,17-2.8,17-2.8,17c-0.9,12.3-0.9,12.3-0.9,12.3
		c-4.7-18.9-4.7-18.9-4.7-18.9c6.6-20.7,6.6-20.7,6.6-20.7c1.9-8.5,1.9-8.5,1.9-8.5c-1.9-5.7-1.9-5.7-1.9-5.7c0-12.3,0-12.3,0-12.3
		c-8.5-9.4-8.5-9.4-8.5-9.4c5.7-15.1,5.7-15.1,5.7-15.1c0-9.4,0-9.4,0-9.4c8.5-12.3,8.5-12.3,8.5-12.3c0,13.2,0,13.2,0,13.2
		c5.7,15.1,5.7,15.1,5.7,15.1c6.6-4.7,6.6-4.7,6.6-4.7c2.8-16,2.8-16,2.8-16C49,484.9,49,484.9,49,484.9
		c22.6-14.1,22.6-14.1,22.6-14.1c13.2-17.9,13.2-17.9,13.2-17.9c7.5-9.4,7.5-9.4,7.5-9.4c10.4-4.7,10.4-4.7,10.4-4.7
		c8.5-2.8,8.5-2.8,8.5-2.8c4.7-2.8,4.7-2.8,4.7-2.8c9.4-3.8,9.4-3.8,9.4-3.8c5.7,3.8,5.7,3.8,5.7,3.8c8.5-2.8,8.5-2.8,8.5-2.8
		c7.5-1.9,7.5-1.9,7.5-1.9c6.6-6.6,6.6-6.6,6.6-6.6c7.5-6.6,7.5-6.6,7.5-6.6c9.4-2.8,9.4-2.8,9.4-2.8c11.3-3.8,11.3-3.8,11.3-3.8
		c5.7-8.5,5.7-8.5,5.7-8.5c9.4-6.6,9.4-6.6,9.4-6.6c15.1,0.9,15.1,0.9,15.1,0.9s49-20.7,54.7-27.3c5.7-5.7,16-33,16-33
		c2.8-4.7,2.8-4.7,2.8-4.7c7.5-8.5,7.5-8.5,7.5-8.5c12.2-9.4,12.2-9.4,12.2-9.4c1.9-6.6,1.9-6.6,1.9-6.6c-5.7-0.9-5.7-0.9-5.7-0.9
		c-0.9-6.6-0.9-6.6-0.9-6.6c-5.7-17-5.7-17-5.7-17c3.8-13.2,3.8-13.2,3.8-13.2c15.1-12.3,15.1-12.3,15.1-12.3
		c2.8-6.6,2.8-6.6,2.8-6.6c6.6-11.3,6.6-11.3,6.6-11.3c5.7,12.3,5.7,12.3,5.7,12.3c20.7,31.1,20.7,31.1,20.7,31.1
		c2.8-10.4,2.8-10.4,2.8-10.4c-4.7-7.5-4.7-7.5-4.7-7.5c4.7-0.9,4.7-0.9,4.7-0.9c5.7,3.8,5.7,3.8,5.7,3.8c2.8-16,2.8-16,2.8-16
		c-5.7,3.8-5.7,3.8-5.7,3.8c-8.5-6.6-8.5-6.6-8.5-6.6c-1.9-9.4-1.9-9.4-1.9-9.4c2.8-9.4,2.8-9.4,2.8-9.4c11.3,2.8,11.3,2.8,11.3,2.8
		c5.7-1.9,5.7-1.9,5.7-1.9C376,236,376,236,376,236c13.2-6.6,13.2-6.6,13.2-6.6c-10.4-0.9-10.4-0.9-10.4-0.9
		C377,220,377,220,377,220c6.6,3.8,6.6,3.8,6.6,3.8c0.9-8.5,0.9-8.5,0.9-8.5c4.7-8.5,4.7-8.5,4.7-8.5c-10.4,3.8-10.4,3.8-10.4,3.8
		c-3.8-5.7-3.8-5.7-3.8-5.7c5.7-4.7,5.7-4.7,5.7-4.7c4.7-5.7,4.7-5.7,4.7-5.7c0-6.6,0-6.6,0-6.6c5.7,0,5.7,0,5.7,0
		c8.5,6.6,8.5,6.6,8.5,6.6c3.8,0,3.8,0,3.8,0c-2.8-5.7-2.8-5.7-2.8-5.7c-5.7-6.6-5.7-6.6-5.7-6.6c3.8-7.5,3.8-7.5,3.8-7.5
		c4.7,5.7,4.7,5.7,4.7,5.7c10.4,0,10.4,0,10.4,0c1.9-5.7,1.9-5.7,1.9-5.7c-7.5-3.8-7.5-3.8-7.5-3.8c-4.7-9.4-4.7-9.4-4.7-9.4
		c10.4-5.7,10.4-5.7,10.4-5.7c8.5-6.6,8.5-6.6,8.5-6.6c8.5,3.8,8.5,3.8,8.5,3.8c2.8,0,2.8,0,2.8,0c1.9-11.3,1.9-11.3,1.9-11.3
		c10.4-6.6,10.4-6.6,10.4-6.6c7.5-5.7,7.5-5.7,7.5-5.7c-0.9,4.7-0.9,4.7-0.9,4.7c5.7,2.8,5.7,2.8,5.7,2.8c6.6-7.5,6.6-7.5,6.6-7.5
		c-2.8-7.5-2.8-7.5-2.8-7.5c5.7-1.9,5.7-1.9,5.7-1.9c8.5,6.6,8.5,6.6,8.5,6.6c9.4-0.9,9.4-0.9,9.4-0.9
		c25.4,24.5,25.4,24.5,25.4,24.5c9.4,10.4,9.4,10.4,9.4,10.4c-3.8,3.8-3.8,3.8-3.8,3.8c-0.9,14.1-0.9,14.1-0.9,14.1
		c6.6,0.9,6.6,0.9,6.6,0.9c0.9-7.5,0.9-7.5,0.9-7.5c3.8-3.8,3.8-3.8,3.8-3.8c3.8-3.8,3.8-3.8,3.8-3.8c0-6.6,0-6.6,0-6.6
		c12.2,2.8,12.2,2.8,12.2,2.8V845.9z"/>
	<path clip-path="url(#SVGID_2_)" fill="none" stroke="#FFFFFF" stroke-miterlimit="8" d="M542.8,845.9c-10.4,5.7-10.4,5.7-10.4,5.7
		c-33,7.5-33,7.5-33,7.5c-19.8-1.9-19.8-1.9-19.8-1.9c-18.8,15.1-18.8,15.1-18.8,15.1c-24.5,14.1-24.5,14.1-24.5,14.1
		c-18.8,9.4-18.8,9.4-18.8,9.4c-4.7,20.7-4.7,20.7-4.7,20.7c-22.6,17-22.6,17-22.6,17c-5.7-3.8-5.7-3.8-5.7-3.8
		c-18.8,2.8-18.8,2.8-18.8,2.8c-7.5,3.8-7.5,3.8-7.5,3.8c-4.7-4.7-4.7-4.7-4.7-4.7c-4.7-0.9-4.7-0.9-4.7-0.9
		c-4.7,1.9-4.7,1.9-4.7,1.9c-20.7,0.9-20.7,0.9-20.7,0.9c-29.2,7.5-29.2,7.5-29.2,7.5c-12.2,3.8-12.2,3.8-12.2,3.8
		C270.5,959,270.5,959,270.5,959c-2.8,7.5-2.8,7.5-2.8,7.5c-13.2,0-13.2,0-13.2,0c-7.5,9.4-7.5,9.4-7.5,9.4
		c-9.4,5.7-9.4,5.7-9.4,5.7C229,991,229,991,229,991c-14.1,6.6-14.1,6.6-14.1,6.6c-10.4-2.8-10.4-2.8-10.4-2.8
		c-19.8,4.7-19.8,4.7-19.8,4.7c-14.1-3.8-14.1-3.8-14.1-3.8c-10.4-1.9-10.4-1.9-10.4-1.9c-9.4-10.4-9.4-10.4-9.4-10.4
		c-16-6.6-16-6.6-16-6.6c-5.7,0.9-5.7,0.9-5.7,0.9c-2.8,0-2.8,0-2.8,0c-6.6-29.2-6.6-29.2-6.6-29.2c19.8,6.6,10.4-0.9,17.9-7.5
		c8.5-7.5-0.9-28.3-0.9-28.3c3.8-3.8,3.8-3.8,3.8-3.8c-2.8-4.7-2.8-4.7-2.8-4.7c2.8-19.8-12.2-41.5-12.2-41.5
		c-28.3-41.5-34.9-87.7-34.9-87.7c-9.4-5.7-9.4-5.7-9.4-5.7c-1.9-10.4-1.9-10.4-1.9-10.4c-8.5-10.4-8.5-10.4-8.5-10.4
		c-10.4-11.3-10.4-11.3-10.4-11.3c-3.8-17-3.8-17-3.8-17c-25.4-35.8-25.4-35.8-25.4-35.8C17,672.4,17,672.4,17,672.4
		c-2.8-8.5-2.8-8.5-2.8-8.5C1.9,650.8,1.9,650.8,1.9,650.8c3.8-4.7,3.8-4.7,3.8-4.7c14.1,17,14.1,17,14.1,17
		c17,20.7,17,20.7,17,20.7c3.8-8.5,3.8-8.5,3.8-8.5c-8.5-7.5-8.5-7.5-8.5-7.5c-10.4-17-10.4-17-10.4-17c-0.9-7.5-0.9-7.5-0.9-7.5
		c11.3,8.5,11.3,8.5,11.3,8.5c4.7,10.4,4.7,10.4,4.7,10.4c2.8-5.7,2.8-5.7,2.8-5.7c4.7,15.1,4.7,15.1,4.7,15.1c5.7,0,5.7,0,5.7,0
		c0.9-19.8,0.9-19.8,0.9-19.8c-17-18.9-17-18.9-17-18.9c-9.4-13.2-9.4-13.2-9.4-13.2c-4.7-9.4-4.7-9.4-4.7-9.4
		c-0.9-7.5-0.9-7.5-0.9-7.5c4.7-16,4.7-16,4.7-16c5.7-6.6,5.7-6.6,5.7-6.6c-6.6-3.8-6.6-3.8-6.6-3.8C21.7,564,21.7,564,21.7,564
		c-3.8,9.4-3.8,9.4-3.8,9.4c-2.8,17-2.8,17-2.8,17c-0.9,12.3-0.9,12.3-0.9,12.3c-4.7-18.9-4.7-18.9-4.7-18.9
		c6.6-20.7,6.6-20.7,6.6-20.7c1.9-8.5,1.9-8.5,1.9-8.5c-1.9-5.7-1.9-5.7-1.9-5.7c0-12.3,0-12.3,0-12.3c-8.5-9.4-8.5-9.4-8.5-9.4
		c5.7-15.1,5.7-15.1,5.7-15.1c0-9.4,0-9.4,0-9.4c8.5-12.3,8.5-12.3,8.5-12.3c0,13.2,0,13.2,0,13.2c5.7,15.1,5.7,15.1,5.7,15.1
		c6.6-4.7,6.6-4.7,6.6-4.7c2.8-16,2.8-16,2.8-16C49,484.9,49,484.9,49,484.9c22.6-14.1,22.6-14.1,22.6-14.1
		c13.2-17.9,13.2-17.9,13.2-17.9c7.5-9.4,7.5-9.4,7.5-9.4c10.4-4.7,10.4-4.7,10.4-4.7c8.5-2.8,8.5-2.8,8.5-2.8
		c4.7-2.8,4.7-2.8,4.7-2.8c9.4-3.8,9.4-3.8,9.4-3.8c5.7,3.8,5.7,3.8,5.7,3.8c8.5-2.8,8.5-2.8,8.5-2.8c7.5-1.9,7.5-1.9,7.5-1.9
		c6.6-6.6,6.6-6.6,6.6-6.6c7.5-6.6,7.5-6.6,7.5-6.6c9.4-2.8,9.4-2.8,9.4-2.8c11.3-3.8,11.3-3.8,11.3-3.8c5.7-8.5,5.7-8.5,5.7-8.5
		c9.4-6.6,9.4-6.6,9.4-6.6c15.1,0.9,15.1,0.9,15.1,0.9s49-20.7,54.7-27.3c5.7-5.7,16-33,16-33c2.8-4.7,2.8-4.7,2.8-4.7
		c7.5-8.5,7.5-8.5,7.5-8.5c12.2-9.4,12.2-9.4,12.2-9.4c1.9-6.6,1.9-6.6,1.9-6.6c-5.7-0.9-5.7-0.9-5.7-0.9c-0.9-6.6-0.9-6.6-0.9-6.6
		c-5.7-17-5.7-17-5.7-17c3.8-13.2,3.8-13.2,3.8-13.2c15.1-12.3,15.1-12.3,15.1-12.3c2.8-6.6,2.8-6.6,2.8-6.6
		c6.6-11.3,6.6-11.3,6.6-11.3c5.7,12.3,5.7,12.3,5.7,12.3c20.7,31.1,20.7,31.1,20.7,31.1c2.8-10.4,2.8-10.4,2.8-10.4
		c-4.7-7.5-4.7-7.5-4.7-7.5c4.7-0.9,4.7-0.9,4.7-0.9c5.7,3.8,5.7,3.8,5.7,3.8c2.8-16,2.8-16,2.8-16c-5.7,3.8-5.7,3.8-5.7,3.8
		c-8.5-6.6-8.5-6.6-8.5-6.6c-1.9-9.4-1.9-9.4-1.9-9.4c2.8-9.4,2.8-9.4,2.8-9.4c11.3,2.8,11.3,2.8,11.3,2.8c5.7-1.9,5.7-1.9,5.7-1.9
		C376,236,376,236,376,236c13.2-6.6,13.2-6.6,13.2-6.6c-10.4-0.9-10.4-0.9-10.4-0.9C377,220,377,220,377,220
		c6.6,3.8,6.6,3.8,6.6,3.8c0.9-8.5,0.9-8.5,0.9-8.5c4.7-8.5,4.7-8.5,4.7-8.5c-10.4,3.8-10.4,3.8-10.4,3.8c-3.8-5.7-3.8-5.7-3.8-5.7
		c5.7-4.7,5.7-4.7,5.7-4.7c4.7-5.7,4.7-5.7,4.7-5.7c0-6.6,0-6.6,0-6.6c5.7,0,5.7,0,5.7,0c8.5,6.6,8.5,6.6,8.5,6.6c3.8,0,3.8,0,3.8,0
		c-2.8-5.7-2.8-5.7-2.8-5.7c-5.7-6.6-5.7-6.6-5.7-6.6c3.8-7.5,3.8-7.5,3.8-7.5c4.7,5.7,4.7,5.7,4.7,5.7c10.4,0,10.4,0,10.4,0
		c1.9-5.7,1.9-5.7,1.9-5.7c-7.5-3.8-7.5-3.8-7.5-3.8c-4.7-9.4-4.7-9.4-4.7-9.4c10.4-5.7,10.4-5.7,10.4-5.7c8.5-6.6,8.5-6.6,8.5-6.6
		c8.5,3.8,8.5,3.8,8.5,3.8c2.8,0,2.8,0,2.8,0c1.9-11.3,1.9-11.3,1.9-11.3c10.4-6.6,10.4-6.6,10.4-6.6c7.5-5.7,7.5-5.7,7.5-5.7
		c-0.9,4.7-0.9,4.7-0.9,4.7c5.7,2.8,5.7,2.8,5.7,2.8c6.6-7.5,6.6-7.5,6.6-7.5c-2.8-7.5-2.8-7.5-2.8-7.5c5.7-1.9,5.7-1.9,5.7-1.9
		c8.5,6.6,8.5,6.6,8.5,6.6c9.4-0.9,9.4-0.9,9.4-0.9c25.4,24.5,25.4,24.5,25.4,24.5c9.4,10.4,9.4,10.4,9.4,10.4
		c-3.8,3.8-3.8,3.8-3.8,3.8c-0.9,14.1-0.9,14.1-0.9,14.1c6.6,0.9,6.6,0.9,6.6,0.9c0.9-7.5,0.9-7.5,0.9-7.5c3.8-3.8,3.8-3.8,3.8-3.8
		c3.8-3.8,3.8-3.8,3.8-3.8c0-6.6,0-6.6,0-6.6c12.2,2.8,12.2,2.8,12.2,2.8V845.9z"/>
	<path clip-path="url(#SVGID_2_)" fill-rule="evenodd" clip-rule="evenodd" fill="#CBCACA" d="M938.3,255.8c0.9,2.8,0.9,4.7,1.9,4.7
		c4.7,0,18.9,10.4,18.9,10.4c12.3,4.7,12.3,4.7,12.3,4.7c17.9,0,17.9,0,17.9,0c13.2-10.4,13.2-10.4,13.2-10.4
		c3.8-15.1,3.8-15.1,3.8-15.1c10.4-14.1,10.4-14.1,10.4-14.1c7.5-17.9,7.5-17.9,7.5-17.9c8.5-31.1,8.5-31.1,8.5-31.1
		c3.8-15.1,3.8-15.1,3.8-15.1c-3.8-21.7-3.8-21.7-3.8-21.7c4.7-14.1,4.7-14.1,4.7-14.1c-3.8-6.6-3.8-6.6-3.8-6.6
		c0-12.3,0-12.3,0-12.3c8.5-11.3,8.5-11.3,8.5-11.3c0.9-8.5,0.9-8.5,0.9-8.5c-3.8-8.5-3.8-8.5-3.8-8.5c10.4-7.5,10.4-7.5,10.4-7.5
		c0.9-5.7,0.9-5.7,0.9-5.7c-3.8-3.8-3.8-3.8-3.8-3.8c-5.7,0-5.7,0-5.7,0c11.3-18.9,11.3-18.9,11.3-18.9c5.7,0,5.7,0,5.7,0
		c-0.9-4.7-0.9-4.7-0.9-4.7c9.4-33.9,9.4-33.9,9.4-33.9c6.6-5.7,6.6-5.7,6.6-5.7c4.7-6.6,4.7-6.6,4.7-6.6
		c11.3,0.9,11.3,0.9,11.3,0.9c-4.7,6.6-4.7,6.6-4.7,6.6c8.5,5.7,8.5,5.7,8.5,5.7c0.9,31.1,0.9,31.1,0.9,31.1
		C1107,54,1107,54,1107,54c-5.7,13.2-5.7,13.2-5.7,13.2c4.7,5.7,4.7,5.7,4.7,5.7c5.7,10.4,5.7,10.4,5.7,10.4
		c2.8,5.7,2.8,5.7,2.8,5.7c1.9,11.3,1.9,11.3,1.9,11.3c0.9,15.1,0.9,15.1,0.9,15.1c-3.8,10.4-3.8,10.4-3.8,10.4
		c5.7,18.9,5.7,18.9,5.7,18.9c7.5,8.5,7.5,8.5,7.5,8.5c9.4-2.8,9.4-2.8,9.4-2.8c12.3-7.5,12.3-7.5,12.3-7.5
		c5.7,15.1,5.7,15.1,5.7,15.1c25.4,23.6,25.4,23.6,25.4,23.6c-1.9,13.2-1.9,13.2-1.9,13.2c-0.9,7.5-0.9,7.5-0.9,7.5
		c0.9,14.1,0.9,14.1,0.9,14.1c0.9,16,0.9,16,0.9,16c0.9,9.4,0.9,9.4,0.9,9.4c9.4,13.2,9.4,13.2,9.4,13.2c3.8,3.8,3.8,3.8,3.8,3.8
		c0,7.5,0,7.5,0,7.5c5.7,19.8,5.7,19.8,5.7,19.8c0,11.3,0,11.3,0,11.3c-3.8,14.1-3.8,14.1-3.8,14.1c5.7,0.9,5.7,0.9,5.7,0.9
		c3.8,8.5,3.8,8.5,3.8,8.5c2.8,25.5,2.8,25.5,2.8,25.5c23.6,17,23.6,17,23.6,17c13.2,3.8,13.2,3.8,13.2,3.8c0,7.5,0,7.5,0,7.5
		c6.6,6.6,6.6,6.6,6.6,6.6c4.7,0,4.7,0,4.7,0c17,14.1,17,14.1,17,14.1c5.7-0.9,5.7-0.9,5.7-0.9c13.2,21.7,13.2,21.7,13.2,21.7
		c-8.5-0.9-8.5-0.9-8.5-0.9c5.7,13.2,5.7,13.2,5.7,13.2c8.5,7.5,8.5,7.5,8.5,7.5c3.8,17.9,3.8,17.9,3.8,17.9
		c5.7,4.7,5.7,4.7,5.7,4.7c4.7,36.8,4.7,36.8,4.7,36.8c3.8-2.8,3.8-2.8,3.8-2.8c6.6,6.6,6.6,6.6,6.6,6.6c-0.9-9.4-0.9-9.4-0.9-9.4
		c3.8-5.7,3.8-5.7,3.8-5.7c4.7,9.4,4.7,9.4,4.7,9.4c11.3,8.5,11.3,8.5,11.3,8.5c0.9-3.8,0.9-3.8,0.9-3.8c0-7.5,0-7.5,0-7.5
		c8.5,15.1,8.5,15.1,8.5,15.1c-1.9,12.3-1.9,12.3-1.9,12.3c-0.9,19.8-0.9,19.8-0.9,19.8c-3.8,3.8-3.8,3.8-3.8,3.8
		c7.5,2.8,7.5,2.8,7.5,2.8c6.6-1.9,6.6-1.9,6.6-1.9c8.5,24.5,8.5,24.5,8.5,24.5c10.4-1.9,10.4-1.9,10.4-1.9
		c7.5,25.5,7.5,25.5,7.5,25.5c8.5,8.5,8.5,8.5,8.5,8.5c5.7,14.1,5.7,14.1,5.7,14.1c10.4,8.5,10.4,8.5,10.4,8.5
		c-2.8,15.1-2.8,15.1-2.8,15.1c6.6,10.4,6.6,10.4,6.6,10.4c-2.8,13.2-2.8,13.2-2.8,13.2c-2.8,15.1-2.8,15.1-2.8,15.1
		c-3.8,24.5-3.8,24.5-3.8,24.5c7.5,9.4,7.5,9.4,7.5,9.4c1.9,17,1.9,17,1.9,17c0,2.8,0,2.8,0,2.8c0,0.9,0,0.9,0,0.9
		c-7.5,1.9-26.4,6.6-40.5,16c-10.4,6.6-19.8,18.9-31.1,18.9c-16,0-21.7-16-31.1-16c-10.4,0-10.4,0-18.9,1.9
		c-7.5,1.9-27.3,13.2-27.3,13.2c-293.1,0-293.1,0-293.1,0c0-135.8,0-135.8,0-135.8c-31.1,0-31.1,0-31.1,0V255.8z"/>
	<path clip-path="url(#SVGID_2_)" fill="none" stroke="#FFFFFF" stroke-miterlimit="8" d="M938.3,255.8c0.9,2.8,0.9,4.7,1.9,4.7
		c4.7,0,18.9,10.4,18.9,10.4c12.3,4.7,12.3,4.7,12.3,4.7c17.9,0,17.9,0,17.9,0c13.2-10.4,13.2-10.4,13.2-10.4
		c3.8-15.1,3.8-15.1,3.8-15.1c10.4-14.1,10.4-14.1,10.4-14.1c7.5-17.9,7.5-17.9,7.5-17.9c8.5-31.1,8.5-31.1,8.5-31.1
		c3.8-15.1,3.8-15.1,3.8-15.1c-3.8-21.7-3.8-21.7-3.8-21.7c4.7-14.1,4.7-14.1,4.7-14.1c-3.8-6.6-3.8-6.6-3.8-6.6
		c0-12.3,0-12.3,0-12.3c8.5-11.3,8.5-11.3,8.5-11.3c0.9-8.5,0.9-8.5,0.9-8.5c-3.8-8.5-3.8-8.5-3.8-8.5c10.4-7.5,10.4-7.5,10.4-7.5
		c0.9-5.7,0.9-5.7,0.9-5.7c-3.8-3.8-3.8-3.8-3.8-3.8c-5.7,0-5.7,0-5.7,0c11.3-18.9,11.3-18.9,11.3-18.9c5.7,0,5.7,0,5.7,0
		c-0.9-4.7-0.9-4.7-0.9-4.7c9.4-33.9,9.4-33.9,9.4-33.9c6.6-5.7,6.6-5.7,6.6-5.7c4.7-6.6,4.7-6.6,4.7-6.6
		c11.3,0.9,11.3,0.9,11.3,0.9c-4.7,6.6-4.7,6.6-4.7,6.6c8.5,5.7,8.5,5.7,8.5,5.7c0.9,31.1,0.9,31.1,0.9,31.1
		C1107,54,1107,54,1107,54c-5.7,13.2-5.7,13.2-5.7,13.2c4.7,5.7,4.7,5.7,4.7,5.7c5.7,10.4,5.7,10.4,5.7,10.4
		c2.8,5.7,2.8,5.7,2.8,5.7c1.9,11.3,1.9,11.3,1.9,11.3c0.9,15.1,0.9,15.1,0.9,15.1c-3.8,10.4-3.8,10.4-3.8,10.4
		c5.7,18.9,5.7,18.9,5.7,18.9c7.5,8.5,7.5,8.5,7.5,8.5c9.4-2.8,9.4-2.8,9.4-2.8c12.3-7.5,12.3-7.5,12.3-7.5
		c5.7,15.1,5.7,15.1,5.7,15.1c25.4,23.6,25.4,23.6,25.4,23.6c-1.9,13.2-1.9,13.2-1.9,13.2c-0.9,7.5-0.9,7.5-0.9,7.5
		c0.9,14.1,0.9,14.1,0.9,14.1c0.9,16,0.9,16,0.9,16c0.9,9.4,0.9,9.4,0.9,9.4c9.4,13.2,9.4,13.2,9.4,13.2c3.8,3.8,3.8,3.8,3.8,3.8
		c0,7.5,0,7.5,0,7.5c5.7,19.8,5.7,19.8,5.7,19.8c0,11.3,0,11.3,0,11.3c-3.8,14.1-3.8,14.1-3.8,14.1c5.7,0.9,5.7,0.9,5.7,0.9
		c3.8,8.5,3.8,8.5,3.8,8.5c2.8,25.5,2.8,25.5,2.8,25.5c23.6,17,23.6,17,23.6,17c13.2,3.8,13.2,3.8,13.2,3.8c0,7.5,0,7.5,0,7.5
		c6.6,6.6,6.6,6.6,6.6,6.6c4.7,0,4.7,0,4.7,0c17,14.1,17,14.1,17,14.1c5.7-0.9,5.7-0.9,5.7-0.9c13.2,21.7,13.2,21.7,13.2,21.7
		c-8.5-0.9-8.5-0.9-8.5-0.9c5.7,13.2,5.7,13.2,5.7,13.2c8.5,7.5,8.5,7.5,8.5,7.5c3.8,17.9,3.8,17.9,3.8,17.9
		c5.7,4.7,5.7,4.7,5.7,4.7c4.7,36.8,4.7,36.8,4.7,36.8c3.8-2.8,3.8-2.8,3.8-2.8c6.6,6.6,6.6,6.6,6.6,6.6c-0.9-9.4-0.9-9.4-0.9-9.4
		c3.8-5.7,3.8-5.7,3.8-5.7c4.7,9.4,4.7,9.4,4.7,9.4c11.3,8.5,11.3,8.5,11.3,8.5c0.9-3.8,0.9-3.8,0.9-3.8c0-7.5,0-7.5,0-7.5
		c8.5,15.1,8.5,15.1,8.5,15.1c-1.9,12.3-1.9,12.3-1.9,12.3c-0.9,19.8-0.9,19.8-0.9,19.8c-3.8,3.8-3.8,3.8-3.8,3.8
		c7.5,2.8,7.5,2.8,7.5,2.8c6.6-1.9,6.6-1.9,6.6-1.9c8.5,24.5,8.5,24.5,8.5,24.5c10.4-1.9,10.4-1.9,10.4-1.9
		c7.5,25.5,7.5,25.5,7.5,25.5c8.5,8.5,8.5,8.5,8.5,8.5c5.7,14.1,5.7,14.1,5.7,14.1c10.4,8.5,10.4,8.5,10.4,8.5
		c-2.8,15.1-2.8,15.1-2.8,15.1c6.6,10.4,6.6,10.4,6.6,10.4c-2.8,13.2-2.8,13.2-2.8,13.2c-2.8,15.1-2.8,15.1-2.8,15.1
		c-3.8,24.5-3.8,24.5-3.8,24.5c7.5,9.4,7.5,9.4,7.5,9.4c1.9,17,1.9,17,1.9,17c0,2.8,0,2.8,0,2.8c0,0.9,0,0.9,0,0.9
		c-7.5,1.9-26.4,6.6-40.5,16c-10.4,6.6-19.8,18.9-31.1,18.9c-16,0-21.7-16-31.1-16c-10.4,0-10.4,0-18.9,1.9
		c-7.5,1.9-27.3,13.2-27.3,13.2c-293.1,0-293.1,0-293.1,0c0-135.8,0-135.8,0-135.8c-31.1,0-31.1,0-31.1,0V255.8z"/>
</g>
</svg>
